<?xml version="1.0" standalone="no"?>
<!DOCTYPE svg PUBLIC "-//W3C//DTD SVG 20010904//EN"
 "http://www.w3.org/TR/2001/REC-SVG-20010904/DTD/svg10.dtd">
<svg version="1.0" xmlns="http://www.w3.org/2000/svg"
 width="634.000000pt" height="634.000000pt" viewBox="0 0 634.000000 634.000000"
 preserveAspectRatio="xMidYMid meet">
<metadata>
Created by potrace 1.14, written by Peter Selinger 2001-2017
</metadata>
<g transform="translate(0.000000,634.000000) scale(0.100000,-0.100000)"
fill="#000000" stroke="none">
<path d="M1340 4749 c51 -64 95 -158 116 -250 13 -52 15 -147 17 -729 l2 -605
24 -49 c26 -53 149 -177 579 -585 26 -24 99 -94 162 -155 64 -61 127 -120 140
-131 l24 -20 -20 30 c-38 59 -44 71 -87 160 -52 107 -79 175 -106 270 -36 125
-34 82 -45 840 -3 149 -5 277 -6 285 -5 33 -39 149 -51 171 -7 13 -11 24 -9
24 6 0 -43 90 -73 135 -36 54 -190 207 -218 215 -10 4 -19 10 -19 15 0 9 46 4
105 -13 22 -6 49 -12 60 -13 26 -4 184 -55 255 -84 60 -24 282 -131 290 -139
8 -9 49 -31 57 -31 4 0 -19 24 -50 53 -65 59 -66 60 -127 107 -24 19 -53 43
-64 52 -11 10 -28 20 -38 24 -10 3 -18 9 -18 13 0 5 -13 14 -30 21 -16 7 -30
16 -30 20 0 3 -12 13 -27 21 -16 8 -47 26 -69 42 -23 15 -47 27 -53 27 -6 0
-11 3 -11 8 0 4 -10 12 -23 18 -12 6 -83 42 -157 81 -74 38 -179 89 -233 112
-94 41 -284 111 -300 111 -4 0 11 -23 33 -51z"/>
<path d="M4985 4787 c-90 -32 -264 -102 -323 -129 -37 -17 -68 -31 -69 -30 -2
1 -29 -13 -60 -31 -32 -18 -78 -43 -103 -56 -78 -40 -275 -157 -299 -178 -9
-7 -54 -42 -101 -76 -87 -64 -109 -82 -188 -154 -45 -41 -48 -58 -7 -30 111
76 445 217 568 241 12 2 42 9 67 15 25 5 61 13 80 16 l34 6 -44 -32 c-25 -18
-52 -41 -61 -51 -9 -10 -20 -18 -25 -18 -5 0 -20 -14 -34 -32 -14 -17 -32 -39
-40 -47 -72 -73 -159 -260 -177 -377 -3 -22 -7 -149 -9 -284 -2 -135 -6 -353
-8 -485 -2 -132 -6 -251 -10 -265 -4 -14 -9 -36 -12 -50 -19 -104 -111 -325
-185 -447 -21 -35 -37 -63 -35 -63 1 0 25 21 52 48 271 257 429 408 489 467
40 39 129 124 198 190 70 66 126 126 127 133 0 6 4 12 8 12 5 0 17 19 28 43
17 39 19 80 21 657 1 338 4 633 7 655 8 74 26 133 64 215 28 59 27 57 73 113
32 38 27 43 -26 24z"/>
<path d="M2830 2630 c0 -640 2 -746 15 -778 10 -23 64 -83 148 -164 72 -71
134 -128 137 -128 3 0 11 -9 18 -20 8 -14 17 -18 26 -13 8 4 80 71 160 147
107 102 150 150 161 180 14 36 15 134 13 780 l-3 739 -54 -43 c-72 -57 -174
-164 -209 -220 -9 -14 -19 -27 -23 -30 -3 -3 -14 -22 -24 -42 -19 -42 -28 -41
-51 5 -9 18 -20 34 -23 37 -3 3 -17 21 -31 40 -56 80 -188 210 -246 243 -12 7
-14 -97 -14 -733z"/>
</g>
</svg>
